<?xml version="1.0" encoding="UTF-8"?>
<svg xmlns="http://www.w3.org/2000/svg" xmlns:xlink="http://www.w3.org/1999/xlink" width="99pt" height="46pt" viewBox="0 0 99 46" version="1.1">
<g id="surface1">
<path style=" stroke:none;fill-rule:nonzero;fill:rgb(100%,85.490196%,48.627451%);fill-opacity:1;" d="M 35.941406 1.75 C 35.476562 1.917969 35.242188 2.328125 35.40625 2.691406 C 35.46875 2.816406 35.980469 3.21875 37.914062 4.609375 C 39.257812 5.574219 40.351562 6.386719 40.351562 6.421875 C 40.351562 6.449219 40.296875 6.53125 40.230469 6.601562 L 40.101562 6.726562 L 37.449219 4.820312 C 35.578125 3.476562 34.757812 2.917969 34.667969 2.917969 C 34.335938 2.917969 34.0625 3.15625 34.164062 3.359375 C 34.1875 3.402344 35.378906 4.289062 36.816406 5.316406 L 39.429688 7.203125 L 39.273438 7.304688 L 39.125 7.402344 L 36.492188 5.515625 C 34.011719 3.734375 33.847656 3.628906 33.65625 3.628906 C 33.386719 3.628906 33.199219 3.761719 33.199219 3.964844 C 33.199219 4.097656 33.382812 4.242188 35.832031 6 L 38.460938 7.894531 L 38.289062 7.996094 C 38.195312 8.050781 38.089844 8.097656 38.054688 8.097656 C 38.027344 8.097656 36.914062 7.320312 35.585938 6.367188 C 34.257812 5.417969 33.085938 4.609375 32.980469 4.570312 C 32.511719 4.402344 31.835938 4.546875 31.578125 4.875 C 31.414062 5.082031 31.40625 5.425781 31.546875 5.621094 C 31.703125 5.816406 36.71875 10.078125 37.027344 10.277344 C 37.339844 10.472656 38.085938 10.746094 38.578125 10.839844 C 38.828125 10.890625 39.335938 10.914062 40.382812 10.941406 C 42.296875 10.980469 42.390625 11.007812 43.414062 11.769531 C 43.949219 12.171875 44.023438 12.210938 44.210938 12.210938 C 44.503906 12.210938 44.660156 12.097656 44.660156 11.894531 C 44.660156 11.753906 44.609375 11.691406 44.257812 11.414062 C 43.496094 10.789062 43.09375 10.570312 42.40625 10.390625 C 42.109375 10.308594 41.882812 10.296875 40.613281 10.265625 C 38.8125 10.230469 38.394531 10.160156 37.695312 9.761719 C 37.457031 9.625 32.382812 5.324219 32.382812 5.253906 C 32.382812 5.097656 32.753906 5.335938 34.878906 6.851562 C 36.175781 7.785156 37.328125 8.585938 37.433594 8.636719 C 37.667969 8.753906 38.160156 8.796875 38.46875 8.726562 C 38.644531 8.6875 38.980469 8.46875 39.875 7.828125 C 40.527344 7.371094 41.109375 6.921875 41.175781 6.832031 C 41.238281 6.742188 41.292969 6.582031 41.292969 6.476562 C 41.308594 6.054688 41.332031 6.074219 38.746094 4.210938 C 37.421875 3.253906 36.339844 2.453125 36.339844 2.421875 C 36.339844 2.398438 36.378906 2.375 36.421875 2.375 C 36.519531 2.375 42.390625 5.902344 42.632812 6.105469 C 42.839844 6.277344 43.125 6.65625 43.238281 6.914062 C 43.3125 7.0625 43.34375 7.394531 43.378906 8.160156 C 43.425781 9.335938 43.480469 9.519531 43.886719 10.015625 C 44.136719 10.320312 45.152344 11.046875 45.457031 11.132812 C 45.675781 11.199219 45.882812 11.15625 46.023438 11.015625 C 46.210938 10.824219 46.148438 10.746094 45.449219 10.246094 C 44.414062 9.511719 44.316406 9.316406 44.308594 7.910156 C 44.308594 7.117188 44.246094 6.820312 44.007812 6.414062 C 43.804688 6.066406 43.460938 5.703125 43.132812 5.480469 C 42.464844 5.039062 37.136719 1.847656 36.910156 1.753906 C 36.609375 1.636719 36.269531 1.636719 35.941406 1.75 Z M 35.941406 1.75 "/>
<path style=" stroke:none;fill-rule:nonzero;fill:rgb(48.627451%,100%,66.27451%);fill-opacity:1;" d="M 58.019531 1.957031 C 56.476562 2.09375 55 2.542969 53.824219 3.226562 C 53.667969 3.316406 53.054688 3.691406 52.46875 4.0625 C 51.125 4.898438 50.796875 5.203125 50.472656 5.902344 C 50.339844 6.183594 50.339844 6.253906 50.332031 7.449219 L 50.332031 8.703125 L 50.144531 8.984375 C 49.925781 9.324219 50.558594 8.84375 42.621094 14.703125 C 39.117188 17.289062 35.980469 19.609375 35.652344 19.855469 C 34.855469 20.449219 34.738281 20.621094 34.738281 21.222656 C 34.738281 21.628906 34.75 21.683594 34.925781 21.941406 C 35.378906 22.636719 36.304688 23.023438 37.363281 22.964844 C 37.890625 22.9375 38.421875 22.765625 38.761719 22.511719 C 38.894531 22.410156 41.941406 19.710938 45.539062 16.503906 C 51.386719 11.289062 52.113281 10.660156 52.421875 10.515625 C 52.921875 10.28125 53.21875 10.234375 54.550781 10.167969 C 56.085938 10.089844 56.566406 9.996094 57.335938 9.628906 C 57.910156 9.359375 58.214844 9.09375 59.1875 8.066406 C 60.765625 6.398438 61.160156 5.652344 61.226562 4.269531 C 61.277344 3.148438 61.132812 2.683594 60.613281 2.316406 C 60.1875 2.019531 59.886719 1.941406 59.089844 1.929688 C 58.722656 1.925781 58.238281 1.933594 58.019531 1.957031 Z M 59.835938 2.746094 C 60.195312 2.929688 60.347656 3.402344 60.292969 4.234375 C 60.21875 5.464844 59.835938 6.160156 58.371094 7.6875 C 57.484375 8.625 57.1875 8.871094 56.722656 9.085938 C 56.117188 9.367188 55.808594 9.421875 54.3125 9.492188 C 52.671875 9.582031 52.148438 9.707031 51.4375 10.203125 C 51.234375 10.34375 48.144531 13.0625 44.570312 16.246094 C 39.550781 20.734375 38.023438 22.066406 37.816406 22.164062 C 37.589844 22.269531 37.488281 22.285156 37.160156 22.285156 C 36.347656 22.28125 35.746094 21.878906 35.65625 21.292969 C 35.636719 21.121094 35.652344 21.027344 35.746094 20.878906 C 35.832031 20.734375 37.496094 19.484375 43.152344 15.308594 C 47.167969 12.347656 50.558594 9.820312 50.695312 9.691406 C 51.261719 9.148438 51.386719 8.707031 51.292969 7.511719 C 51.234375 6.769531 51.234375 6.613281 51.316406 6.339844 C 51.425781 5.96875 51.667969 5.59375 51.96875 5.347656 C 52.160156 5.1875 53.519531 4.304688 54.316406 3.832031 C 55.5625 3.085938 56.972656 2.6875 58.535156 2.628906 C 59.386719 2.597656 59.585938 2.613281 59.835938 2.746094 Z M 59.835938 2.746094 "/>
<path style=" stroke:none;fill-rule:nonzero;fill:rgb(100%,85.490196%,48.627451%);fill-opacity:1;" d="M 50.300781 13.644531 C 50.128906 13.691406 49.953125 13.84375 49.953125 13.945312 C 49.953125 14.003906 50 14.101562 50.058594 14.167969 C 50.109375 14.226562 52.363281 15.71875 55.050781 17.476562 C 60.492188 21.03125 60.183594 20.796875 60.117188 21.296875 C 60.070312 21.707031 59.796875 21.992188 59.269531 22.1875 C 58.929688 22.316406 58.390625 22.324219 58.070312 22.199219 C 57.914062 22.140625 56.5 21.054688 53.445312 18.648438 C 50.773438 16.539062 48.988281 15.167969 48.894531 15.144531 C 48.5625 15.0625 48.207031 15.300781 48.296875 15.546875 C 48.332031 15.640625 56.867188 22.417969 57.210938 22.613281 C 57.5 22.785156 57.683594 22.851562 58.023438 22.914062 C 58.632812 23.027344 59.210938 22.976562 59.820312 22.757812 C 61.148438 22.273438 61.515625 20.871094 60.507812 20.117188 C 60.234375 19.914062 50.785156 13.734375 50.695312 13.695312 C 50.566406 13.644531 50.390625 13.621094 50.300781 13.644531 Z M 50.300781 13.644531 "/>
<path style=" stroke:none;fill-rule:nonzero;fill:rgb(100%,85.490196%,48.627451%);fill-opacity:1;" d="M 1.820312 25.105469 L 1.820312 33.5 L 4.546875 33.5 C 6.292969 33.5 7.167969 32.09375 7.167969 29.277344 C 7.167969 26.28125 6.230469 25.105469 3.800781 25.105469 Z M 2.734375 32.585938 L 2.734375 26.0625 L 4.339844 26.0625 C 5.664062 26.0625 6.28125 27.054688 6.28125 29.277344 C 6.28125 31.433594 5.6875 32.585938 4.546875 32.585938 Z M 11.417969 26.28125 C 11.855469 26.28125 12.085938 26.050781 12.085938 25.597656 C 12.085938 25.167969 11.855469 24.9375 11.417969 24.9375 C 10.992188 24.9375 10.75 25.167969 10.75 25.597656 C 10.75 26.050781 10.984375 26.28125 11.417969 26.28125 Z M 13.835938 32.789062 L 13.835938 32.753906 L 11.957031 32.753906 L 11.96875 27.367188 L 9.835938 27.367188 L 9.835938 28.050781 L 11.085938 28.117188 L 11.085938 32.753906 L 9.246094 32.753906 L 9.246094 33.5 L 13.898438 33.5 C 13.835938 33.28125 13.835938 33.023438 13.835938 32.789062 Z M 21.105469 32.789062 L 21.105469 30.3125 C 21.105469 28.773438 20.464844 27.199219 18.882812 27.199219 C 18.136719 27.199219 17.328125 27.546875 17.042969 28.089844 L 17.042969 28.117188 L 17.042969 28.089844 C 17.058594 27.816406 17.1875 27.496094 17.273438 27.367188 L 16.132812 27.367188 L 16.132812 33.5 L 17.042969 33.5 L 17.042969 29.070312 C 17.3125 28.527344 17.703125 28.117188 18.429688 28.117188 C 19.511719 28.117188 20.140625 28.992188 20.140625 30.078125 L 20.140625 33.5 L 21.171875 33.5 C 21.105469 33.28125 21.105469 33.023438 21.105469 32.789062 Z M 25.550781 26.28125 C 25.988281 26.28125 26.21875 26.050781 26.21875 25.597656 C 26.21875 25.167969 25.988281 24.9375 25.550781 24.9375 C 25.125 24.9375 24.882812 25.167969 24.882812 25.597656 C 24.882812 26.050781 25.113281 26.28125 25.550781 26.28125 Z M 27.964844 32.789062 L 27.964844 32.753906 L 26.089844 32.753906 L 26.101562 27.367188 L 23.96875 27.367188 L 23.96875 28.050781 L 25.214844 28.117188 L 25.214844 32.753906 L 23.378906 32.753906 L 23.378906 33.5 L 28.03125 33.5 C 27.964844 33.28125 27.964844 33.023438 27.964844 32.789062 Z M 35.234375 32.789062 L 35.234375 30.3125 C 35.234375 28.773438 34.59375 27.199219 33.015625 27.199219 C 32.269531 27.199219 31.457031 27.546875 31.175781 28.089844 L 31.175781 28.117188 L 31.175781 28.089844 C 31.1875 27.816406 31.316406 27.496094 31.40625 27.367188 L 30.261719 27.367188 L 30.261719 33.5 L 31.175781 33.5 L 31.175781 29.070312 C 31.445312 28.527344 31.832031 28.117188 32.5625 28.117188 C 33.644531 28.117188 34.273438 28.992188 34.273438 30.078125 L 34.273438 33.5 L 35.300781 33.5 C 35.234375 33.28125 35.234375 33.023438 35.234375 32.789062 Z M 41.414062 27.367188 L 41.414062 28.117188 C 40.976562 27.496094 40.386719 27.199219 39.589844 27.199219 C 37.882812 27.199219 36.789062 28.28125 36.789062 29.976562 C 36.789062 31.707031 37.929688 32.90625 39.589844 32.90625 C 40.195312 32.90625 40.851562 32.664062 41.414062 32.210938 L 41.414062 33.5 C 41.414062 34.238281 40.875 34.613281 39.792969 34.613281 C 38.871094 34.613281 38.125 34.316406 37.675781 33.785156 L 37.121094 34.445312 C 37.574219 35.039062 38.636719 35.4375 39.769531 35.4375 C 41.324219 35.4375 42.324219 34.675781 42.324219 33.5 L 42.324219 28.078125 C 42.324219 27.84375 42.324219 27.585938 42.390625 27.367188 Z M 39.589844 32.042969 C 38.523438 32.042969 37.675781 31.125 37.675781 29.976562 C 37.675781 28.851562 38.511719 27.988281 39.589844 27.988281 C 40.359375 27.988281 41.015625 28.425781 41.414062 29.199219 L 41.414062 31.007812 C 41.082031 31.652344 40.386719 32.042969 39.589844 32.042969 Z M 39.589844 32.042969 "/>
<path style=" stroke:none;fill-rule:nonzero;fill:rgb(100%,100%,100%);fill-opacity:1;" d="M 48.929688 30.699219 L 48.929688 29.847656 L 44.742188 29.847656 L 44.742188 30.699219 Z M 48.929688 30.699219 "/>
<path style=" stroke:none;fill-rule:nonzero;fill:rgb(48.627451%,100%,66.27451%);fill-opacity:1;" d="M 51.277344 25.105469 L 51.277344 33.5 L 54.003906 33.5 C 55.753906 33.5 56.625 32.09375 56.625 29.277344 C 56.625 26.28125 55.6875 25.105469 53.257812 25.105469 Z M 52.191406 32.585938 L 52.191406 26.0625 L 53.796875 26.0625 C 55.121094 26.0625 55.738281 27.054688 55.738281 29.277344 C 55.738281 31.433594 55.144531 32.585938 54.003906 32.585938 Z M 61.003906 27.199219 C 59.257812 27.199219 58.34375 28.347656 58.292969 30.324219 L 58.292969 30.878906 C 58.292969 32.507812 59.449219 33.671875 61.054688 33.671875 C 61.957031 33.671875 62.789062 33.28125 63.382812 32.636719 L 62.84375 31.964844 C 62.148438 32.636719 61.570312 32.828125 61.03125 32.828125 C 59.953125 32.828125 59.191406 32.03125 59.191406 30.878906 L 63.546875 30.855469 L 63.5625 30.324219 C 63.640625 28.335938 62.742188 27.199219 61.003906 27.199219 Z M 62.597656 30.054688 L 59.207031 30.054688 C 59.257812 28.785156 59.734375 27.996094 60.914062 27.996094 C 62.097656 27.996094 62.664062 28.734375 62.597656 30.054688 Z M 70.304688 32.789062 L 70.304688 32.753906 L 68.496094 32.753906 L 68.496094 25.105469 L 66.320312 25.105469 L 66.320312 25.789062 L 67.582031 25.855469 L 67.582031 32.753906 L 65.730469 32.753906 L 65.730469 33.5 L 70.371094 33.5 C 70.304688 33.28125 70.304688 33.023438 70.304688 32.789062 Z M 75.007812 26.28125 C 75.445312 26.28125 75.675781 26.050781 75.675781 25.597656 C 75.675781 25.167969 75.445312 24.9375 75.007812 24.9375 C 74.582031 24.9375 74.339844 25.167969 74.339844 25.597656 C 74.339844 26.050781 74.570312 26.28125 75.007812 26.28125 Z M 77.421875 32.789062 L 77.421875 32.753906 L 75.546875 32.753906 L 75.558594 27.367188 L 73.425781 27.367188 L 73.425781 28.050781 L 74.671875 28.117188 L 74.671875 32.753906 L 72.835938 32.753906 L 72.835938 33.5 L 77.488281 33.5 C 77.421875 33.28125 77.421875 33.023438 77.421875 32.789062 Z M 83.808594 27.367188 L 83.808594 28.117188 C 83.371094 27.496094 82.777344 27.199219 81.984375 27.199219 C 80.273438 27.199219 79.179688 28.28125 79.179688 29.976562 C 79.179688 31.707031 80.324219 32.90625 81.984375 32.90625 C 82.585938 32.90625 83.242188 32.664062 83.808594 32.210938 L 83.808594 33.5 C 83.808594 34.238281 83.265625 34.613281 82.1875 34.613281 C 81.261719 34.613281 80.515625 34.316406 80.066406 33.785156 L 79.515625 34.445312 C 79.964844 35.039062 81.03125 35.4375 82.164062 35.4375 C 83.714844 35.4375 84.71875 34.675781 84.71875 33.5 L 84.71875 28.078125 C 84.71875 27.84375 84.71875 27.585938 84.78125 27.367188 Z M 81.984375 32.042969 C 80.914062 32.042969 80.066406 31.125 80.066406 29.976562 C 80.066406 28.851562 80.902344 27.988281 81.984375 27.988281 C 82.753906 27.988281 83.40625 28.425781 83.808594 29.199219 L 83.808594 31.007812 C 83.472656 31.652344 82.777344 32.042969 81.984375 32.042969 Z M 91.734375 32.789062 L 91.734375 30.3125 C 91.734375 28.773438 91.089844 27.199219 89.507812 27.199219 C 88.75 27.199219 87.957031 27.546875 87.660156 28.089844 L 87.660156 25.105469 L 86.746094 25.042969 L 86.746094 33.5 L 87.660156 33.5 L 87.660156 29.070312 C 87.929688 28.527344 88.3125 28.117188 89.058594 28.117188 C 90.136719 28.117188 90.757812 28.992188 90.757812 30.078125 L 90.757812 33.5 L 91.796875 33.5 C 91.734375 33.28125 91.734375 33.023438 91.734375 32.789062 Z M 98.195312 31.859375 C 97.925781 32.496094 97.410156 32.765625 96.921875 32.765625 C 96.304688 32.765625 95.726562 32.3125 95.726562 31.410156 L 95.726562 28.195312 L 98.320312 28.195312 L 98.320312 27.367188 L 95.726562 27.367188 L 95.726562 25.105469 L 94.8125 25.042969 L 94.8125 27.367188 L 93.824219 27.367188 L 93.824219 28.195312 L 94.8125 28.195312 L 94.8125 31.410156 C 94.8125 32.84375 95.855469 33.671875 96.933594 33.671875 C 97.730469 33.671875 98.554688 33.246094 99.015625 32.238281 Z M 98.195312 31.859375 "/>
</g>
</svg>
